<svg width="36" height="36" viewBox="0 0 36 36" fill="none" xmlns="http://www.w3.org/2000/svg">
<circle cx="18" cy="18" r="16.75" stroke="#2E90FA" stroke-width="1.5" stroke-linejoin="round" stroke-dasharray="0.5 0.5"/>
<path d="M14.6667 12.7917C14.3251 12.7917 14.0417 12.5083 14.0417 12.1667V9.66667C14.0417 9.32501 14.3251 9.04167 14.6667 9.04167C15.0084 9.04167 15.2917 9.32501 15.2917 9.66667V12.1667C15.2917 12.5083 15.0084 12.7917 14.6667 12.7917Z" fill="#2E90FA"/>
<path d="M21.3333 12.7917C20.9916 12.7917 20.7083 12.5083 20.7083 12.1667V9.66667C20.7083 9.32501 20.9916 9.04167 21.3333 9.04167C21.6749 9.04167 21.9583 9.32501 21.9583 9.66667V12.1667C21.9583 12.5083 21.6749 12.7917 21.3333 12.7917Z" fill="#2E90FA"/>
<path d="M15.0833 20.0833C14.975 20.0833 14.8667 20.0667 14.7667 20.0167C14.6667 19.975 14.575 19.9167 14.4917 19.8417C14.3417 19.6833 14.25 19.4667 14.25 19.25C14.25 19.1417 14.275 19.0333 14.3167 18.9333C14.3583 18.8333 14.4167 18.7417 14.4917 18.6583C14.575 18.5833 14.6667 18.525 14.7667 18.4833C15.0667 18.3583 15.4417 18.425 15.675 18.6583C15.75 18.7417 15.8083 18.8333 15.85 18.9333C15.8917 19.0333 15.9167 19.1417 15.9167 19.25C15.9167 19.4667 15.825 19.6833 15.675 19.8417C15.5167 19.9917 15.3 20.0833 15.0833 20.0833Z" fill="#2E90FA"/>
<path d="M18.0001 20.0833C17.7834 20.0833 17.5667 19.9917 17.4084 19.8417C17.3334 19.7583 17.2751 19.6667 17.2334 19.5667C17.1917 19.4667 17.1667 19.3583 17.1667 19.25C17.1667 19.0333 17.2584 18.8167 17.4084 18.6583C17.6417 18.425 18.0084 18.35 18.3168 18.4833C18.4168 18.525 18.5084 18.5833 18.5918 18.6583C18.7418 18.8167 18.8334 19.0333 18.8334 19.25C18.8334 19.3583 18.8167 19.4667 18.7667 19.5667C18.7251 19.6667 18.6668 19.7583 18.5918 19.8417C18.5084 19.9167 18.4168 19.975 18.3168 20.0167C18.2168 20.0667 18.1084 20.0833 18.0001 20.0833Z" fill="#2E90FA"/>
<path d="M15.0833 23C14.975 23 14.8667 22.975 14.7667 22.9333C14.6667 22.8917 14.575 22.8333 14.4917 22.7583C14.3417 22.6 14.25 22.3917 14.25 22.1667C14.25 22.0583 14.275 21.95 14.3167 21.85C14.3583 21.7417 14.4167 21.6583 14.4917 21.575C14.575 21.5 14.6667 21.4416 14.7667 21.4C15.0667 21.2666 15.4417 21.3417 15.675 21.575C15.75 21.6583 15.8083 21.7417 15.85 21.85C15.8917 21.95 15.9167 22.0583 15.9167 22.1667C15.9167 22.3917 15.825 22.6 15.675 22.7583C15.5167 22.9083 15.3 23 15.0833 23Z" fill="#2E90FA"/>
<path d="M25.0834 16.2H10.9167C10.5751 16.2 10.2917 15.9166 10.2917 15.575C10.2917 15.2333 10.5751 14.95 10.9167 14.95H25.0834C25.4251 14.95 25.7084 15.2333 25.7084 15.575C25.7084 15.9166 25.4251 16.2 25.0834 16.2Z" fill="#2E90FA"/>
<path d="M23.0001 27.7917C20.8167 27.7917 19.0417 26.0167 19.0417 23.8333C19.0417 21.65 20.8167 19.875 23.0001 19.875C25.1834 19.875 26.9584 21.65 26.9584 23.8333C26.9584 26.0167 25.1834 27.7917 23.0001 27.7917ZM23.0001 21.125C21.5084 21.125 20.2917 22.3417 20.2917 23.8333C20.2917 25.325 21.5084 26.5417 23.0001 26.5417C24.4917 26.5417 25.7084 25.325 25.7084 23.8333C25.7084 22.3417 24.4917 21.125 23.0001 21.125Z" fill="#2E90FA"/>
<path d="M24.2417 24.4999H21.75C21.4083 24.4999 21.125 24.2166 21.125 23.8749C21.125 23.5333 21.4083 23.2499 21.75 23.2499H24.2417C24.5833 23.2499 24.8667 23.5333 24.8667 23.8749C24.8667 24.2166 24.5917 24.4999 24.2417 24.4999Z" fill="#2E90FA"/>
<path d="M23 25.775C22.6583 25.775 22.375 25.4916 22.375 25.15V22.6583C22.375 22.3166 22.6583 22.0333 23 22.0333C23.3417 22.0333 23.625 22.3166 23.625 22.6583V25.15C23.625 25.4916 23.3417 25.775 23 25.775Z" fill="#2E90FA"/>
<path d="M20.8083 26.9583H14.6667C11.625 26.9583 9.875 25.2083 9.875 22.1667V15.0833C9.875 12.0417 11.625 10.2917 14.6667 10.2917H21.3333C24.375 10.2917 26.125 12.0417 26.125 15.0833V21.6333C26.125 21.8917 25.9667 22.125 25.7167 22.2167C25.475 22.3083 25.2 22.2417 25.025 22.0417C24.5083 21.4583 23.7667 21.125 22.9917 21.125C21.5 21.125 20.2833 22.3417 20.2833 23.8333C20.2833 24.325 20.4167 24.8084 20.675 25.225C20.8167 25.475 21 25.6833 21.2 25.8583C21.4 26.025 21.475 26.3 21.3833 26.55C21.3083 26.7917 21.075 26.9583 20.8083 26.9583ZM14.6667 11.5417C12.2833 11.5417 11.125 12.7 11.125 15.0833V22.1667C11.125 24.55 12.2833 25.7083 14.6667 25.7083H19.5167C19.2083 25.1417 19.0417 24.5 19.0417 23.8333C19.0417 21.65 20.8167 19.875 23 19.875C23.6583 19.875 24.3083 20.0417 24.875 20.35V15.0833C24.875 12.7 23.7167 11.5417 21.3333 11.5417H14.6667Z" fill="#2E90FA"/>
</svg>
